PathFileType	3	(X/Y/Z)	RCH0000002 BBF 10.c3d
DataRate	CameraRate	NumFrames	NumMarkers	Units	OrigDataRate	OrigDataStartFrame	OrigNumFrames
100.0	100.0	11	23	mm	100.0	514	464
Frame#	Time	MAN			RASI			LKNE			LANK			LHEE			LTOE			RPAT			RKNE			RANK			RMED			RHEE			RTOE			LPAT			RPSI			LMED			LASI			T2			LPSI			T10			RTHI			LTHI			RTIB			LTIB			
		X1	Y1	Z1	X2	Y2	Z2	X3	Y3	Z3	X4	Y4	Z4	X5	Y5	Z5	X6	Y6	Z6	X7	Y7	Z7	X8	Y8	Z8	X9	Y9	Z9	X10	Y10	Z10	X11	Y11	Z11	X12	Y12	Z12	X13	Y13	Z13	X14	Y14	Z14	X15	Y15	Z15	X16	Y16	Z16	X17	Y17	Z17	X18	Y18	Z18	X19	Y19	Z19	X20	Y20	Z20	X21	Y21	Z21	X22	Y22	Z22	X23	Y23	Z23	

514	5.130	2026.94254	-32.80418	964.90851	2035.38447	-142.46553	654.47890	1932.04853	37.68212	348.06159	1871.69896	30.39410	77.35746	1835.14755	-10.05103	110.85405	1923.43967	-2.91503	73.41298	2106.54334	-84.77666	387.86739	2060.93991	-141.11894	353.59096	1896.18186	-178.89656	146.95841	1884.91513	-110.24789	157.17364	1870.12348	-147.58345	195.06941	1924.00703	-141.28886	112.66898	1981.02945	-18.00715	384.77389	1916.29370	-118.22438	709.32684	1878.94813	-37.92453	97.15689	1992.84269	28.76838	660.89155	1897.66932	-55.02332	988.19657	1899.43107	-49.91756	712.70208	1921.88966	-75.92800	801.42285	2061.49343	-213.80952	462.99527	1931.96324	107.62640	473.09435	2000.45311	-221.78741	273.96091	1898.26966	98.84381	232.12524	
515	5.140	2037.32521	-33.62400	964.54388	2044.30517	-141.32311	654.66920	1933.98447	38.38108	348.45400	1871.96954	30.62635	77.90371	1835.98947	-10.01770	111.79109	1923.93116	-2.43530	73.55977	2124.11972	-82.71604	393.83003	2080.27730	-139.27956	357.61139	1922.62448	-177.92533	146.24935	1910.51278	-109.23562	155.79008	1894.46214	-146.66151	193.12279	1951.95088	-140.24618	113.45432	1984.06581	-16.85421	384.33693	1924.67787	-118.87906	708.95182	1879.81238	-37.62902	97.84711	1999.46296	29.28826	661.23695	1908.19010	-55.35535	989.06266	1907.04449	-50.97081	712.57409	1930.10585	-76.09306	801.93696	2076.90210	-212.44060	466.67408	1935.14950	107.95113	473.67501	2022.83130	-220.21622	276.28501	1898.89776	99.35535	232.59206	
516	5.150	2047.79645	-34.41324	963.86634	2053.25869	-140.34501	654.58102	1936.10028	39.13102	348.83919	1872.31397	31.05085	78.42417	1836.85105	-9.71392	112.72470	1924.43032	-1.83422	73.68003	2141.07458	-80.77877	399.61823	2099.07486	-137.47587	361.53948	1949.40753	-176.76139	145.18460	1936.51235	-108.03204	153.97168	1919.12396	-145.56477	190.66828	1980.18714	-138.98207	113.93405	1987.24575	-15.68628	383.84122	1933.11307	-119.67525	708.29905	1880.64822	-37.13248	98.52268	2006.22671	29.65578	661.45193	1918.77975	-55.58472	989.61430	1914.77820	-52.15513	712.23037	1938.40013	-76.39460	802.21197	2091.92969	-211.12988	470.13434	1938.56966	108.28148	474.24792	2044.95531	-218.61545	278.40556	1899.77951	99.98810	233.06191	
517	5.160	2058.35144	-35.19558	962.91633	2062.28787	-139.52597	654.23687	1938.38993	39.90537	349.22252	1872.69968	31.59780	78.93651	1837.71312	-9.22981	113.66842	1924.92413	-1.15429	73.78457	2157.31148	-78.91980	405.10826	2117.23443	-135.68294	365.27267	1976.45725	-175.42296	143.75701	1962.80145	-106.67464	151.71525	1944.03570	-144.34225	187.69937	2008.60154	-137.49996	114.08924	1990.56062	-14.53912	383.29194	1941.64552	-120.58333	707.39427	1881.46251	-36.50000	99.19137	2013.19233	29.88986	661.55443	1929.43564	-55.76439	989.87324	1922.68759	-53.43344	711.70080	1946.80667	-76.84291	802.26662	2106.54997	-209.84685	473.29730	1942.27426	108.61737	474.80269	2066.78422	-216.97947	280.25553	1900.85085	100.69477	233.54436	
518	5.170	2068.98449	-35.99640	961.73747	2071.43579	-138.85772	653.66295	1940.87314	40.66867	349.60280	1873.09946	32.19330	79.46326	1838.56773	-8.66165	114.64152	1925.40370	-0.44215	73.88458	2172.74197	-77.08393	410.16066	2134.66526	-133.87391	368.69397	2003.67741	-173.93690	141.94495	1989.22695	-105.21477	149.01420	1969.09739	-143.06383	184.20667	2037.04729	-135.80433	113.88774	1994.02929	-13.45051	382.69035	1950.32156	-121.56808	706.26230	1882.26740	-35.80352	99.86302	2020.42014	30.01094	661.55560	1940.15387	-55.94899	989.86347	1930.82568	-54.76381	711.00821	1955.35802	-77.43821	802.11735	2120.74770	-208.55673	476.07766	1946.32103	108.95165	475.32076	2088.28737	-215.30055	281.74795	1902.06884	101.41833	234.04978	
519	5.180	2079.68918	-36.84076	960.37368	2080.74541	-138.32819	652.88552	1943.59894	41.38293	349.97028	1873.49674	32.76978	80.03060	1839.42108	-8.09798	115.66862	1925.86599	0.25758	73.99059	2187.29323	-75.20934	414.62377	2151.29033	-132.02255	371.67574	2030.93459	-172.33954	139.71846	2015.58962	-103.71495	145.86226	1994.17213	-141.81458	180.18429	2065.33562	-133.90629	113.28888	1997.70118	-12.45417	382.03185	1959.18667	-122.59225	704.92556	1883.07991	-35.11194	100.54958	2027.96937	30.04075	661.45905	1950.92925	-56.19195	989.60857	1939.24068	-56.10337	710.16699	1964.08537	-78.17175	801.77653	2134.52360	-207.22157	478.38690	1950.77348	109.27329	475.77623	2109.43581	-213.57009	282.78461	1903.42262	102.10142	234.58706	
520	5.190	2090.45844	-37.75164	958.86692	2090.25845	-137.92125	651.92860	1946.64636	42.01289	350.30480	1873.88956	33.27343	80.66721	1840.29560	-7.60941	116.77910	1926.31508	0.90670	74.11173	2200.91570	-73.23275	418.34151	2167.05247	-130.10638	374.08688	2058.04504	-170.67738	137.04785	2041.64238	-102.24553	142.25909	2019.07785	-140.68734	175.63786	2093.22980	-131.82976	112.25094	2001.65633	-11.57587	381.30406	1968.28392	-123.61945	703.40379	1883.92200	-34.48351	101.26494	2035.89476	30.00184	661.26040	1961.75518	-56.54291	989.12984	1947.97357	-57.41141	709.18307	1973.01837	-79.02700	801.25156	2147.89721	-205.80233	480.13912	1955.69917	109.56993	476.13646	2130.19173	-211.78057	283.26816	1904.93997	102.69395	235.16105	
521	5.200	2101.28442	-38.74819	957.25553	2100.01332	-137.61708	650.81307	1950.12221	42.52957	350.57425	1874.29346	33.66828	81.40320	1841.23096	-7.24274	118.00633	1926.76326	1.47558	74.25525	2213.58960	-71.09629	421.16525	2181.91910	-128.11020	375.80323	2084.76596	-169.00727	133.91341	2067.09349	-100.88077	138.21733	2043.58304	-139.77431	170.59328	2120.44438	-129.61673	110.74052	2006.00238	-10.83150	380.48525	1977.65190	-124.61622	701.71508	1884.82129	-33.96110	102.02481	2044.24293	29.91687	660.94743	1972.62371	-57.04551	988.44519	1957.05581	-58.65146	708.05507	1982.18465	-79.98086	800.54486	2160.90644	-204.26233	481.25871	1961.16747	109.82942	476.36275	2150.49773	-209.92824	283.11583	1906.68925	103.15819	235.77021	
522	5.210	2112.15839	-39.84429	955.57340	2110.04246	-137.39334	649.55754	1954.15600	42.91202	350.73393	1874.74312	33.93719	82.26907	1842.28443	-7.01919	119.38644	1927.23212	1.94356	74.42641	2225.32933	-68.75577	422.96859	2195.88480	-126.02974	376.72022	2110.79424	-167.39566	130.31504	2091.61542	-99.69440	133.76992	2067.40868	-139.15871	165.10455	2146.65132	-127.33034	108.74241	2010.86912	-10.22726	379.54348	1987.32208	-125.55315	699.87797	1885.81239	-33.57028	102.84646	2053.04901	29.80748	660.50074	1983.52544	-57.73539	987.56907	1966.50740	-59.79231	706.77656	1991.60875	-81.00460	799.65492	2173.60351	-202.57207	481.68888	1967.24706	110.04055	476.41104	2170.26814	-208.01629	282.27248	1908.77698	103.47126	236.40468	
523	5.220	2123.07048	-41.04733	953.84982	2120.36910	-137.22728	648.18051	1958.89236	43.14769	350.72722	1875.29336	34.08032	83.29471	1843.53071	-6.93606	120.95688	1927.75376	2.29794	74.62891	2236.18467	-66.18952	423.66333	2208.97114	-123.87517	376.76612	2135.77490	-165.91628	126.28027	2114.85988	-98.75491	128.97645	2090.23772	-138.90710	159.25944	2171.49366	-125.05432	106.26835	2016.40065	-9.76123	378.43690	1997.31598	-126.40511	697.91429	1886.93857	-33.31970	103.74851	2062.33382	29.69284	659.89511	1994.44954	-58.63846	986.51336	1976.33524	-60.80808	705.33923	2001.31069	-82.06471	798.57826	2186.04747	-200.71538	481.39974	1974.00322	110.19280	476.23322	2189.38474	-206.05815	280.72068	1911.34171	103.62523	237.04517	
524	5.230	2134.00948	-42.35731	952.11011	2131.00412	-137.09830	646.70359	1964.48165	43.23156	350.48813	1876.01943	34.11195	84.50843	1845.06127	-6.97071	122.75435	1928.37236	2.53233	74.86578	2246.23814	-63.40688	423.21439	2221.22330	-121.67405	375.91402	2159.32009	-164.64585	121.86954	2136.47867	-98.12070	123.92710	2111.73272	-139.06344	153.18134	2194.60687	-122.88850	103.36317	2022.74588	-9.42609	377.11567	2007.64232	-127.15110	695.85232	1888.25359	-33.20336	104.75055	2072.10199	29.58803	659.10177	2005.38383	-59.76943	985.28901	1986.53207	-61.67776	703.73659	2011.30407	-83.12364	797.31211	2198.29419	-198.69599	480.39479	1981.49496	110.27575	475.77930	2207.69845	-204.08076	278.48623	1914.54530	103.62544	237.66290	
